<?xml version="1.0" encoding="UTF-8"?>
<svg xmlns="http://www.w3.org/2000/svg" id="Layer_2" viewBox="0 0 144.41 144.41">
  <defs>
    <style>.cls-1{fill:#010101;}.cls-2{fill:#fff;stroke:#231f20;stroke-miterlimit:10;stroke-width:2px;}</style>
  </defs>
  <g id="Layer_1-2">
    <circle class="cls-2" cx="72.21" cy="72.21" r="71.21"></circle>
    <g id="Page-1">
      <g id="_017---Self-Star-Rating">
        <path id="Shape" class="cls-1" d="m78.25,75.81c-.39.14-.68.47-.75.87s.07.82.38,1.09.74.35,1.13.22c9.57-3.32,15.35-13.06,13.67-23.05-1.68-9.99-10.33-17.3-20.46-17.3s-18.78,7.32-20.46,17.3c-1.68,9.99,4.1,19.73,13.67,23.05.6.21,1.26-.11,1.47-.71.21-.6-.11-1.26-.71-1.47-1.99-.7-3.85-1.73-5.49-3.05v-1.26c0-3.6,2.21-6.82,5.57-8.11,3.57,2.53,8.35,2.53,11.92,0,3.36,1.29,5.57,4.51,5.57,8.11v1.26c-1.64,1.32-3.49,2.36-5.48,3.05h0Zm-14.11-20.89c0-4.46,3.61-8.07,8.07-8.07s8.07,3.61,8.07,8.07-3.61,8.07-8.07,8.07c-4.45,0-8.06-3.61-8.07-8.07Zm15.9,6.77c3.62-4.18,3.32-10.48-.68-14.3-4.01-3.82-10.31-3.82-14.31,0s-4.31,10.11-.68,14.3c-3.39,1.74-5.64,5.11-5.95,8.91-6.57-7.4-6.12-18.67,1.02-25.53,7.14-6.86,18.42-6.86,25.55,0,7.14,6.86,7.59,18.13,1.02,25.53-.3-3.8-2.56-7.17-5.96-8.91Z"></path>
        <path id="Shape-2" class="cls-1" d="m62.3,106.33c.7.52,1.64.59,2.42.19l7.5-3.9,7.5,3.9c.78.4,1.72.33,2.42-.18s1.06-1.39.91-2.25l-1.42-8.22,6.03-5.81c.63-.61.86-1.53.59-2.37s-.99-1.45-1.86-1.57l-8.37-1.2-3.73-7.51c-.39-.79-1.19-1.28-2.07-1.28-.87,0-1.67.49-2.06,1.27l-3.75,7.51-8.35,1.2c-.87.13-1.59.74-1.86,1.58s-.04,1.76.6,2.37l6.03,5.81-1.43,8.22c-.15.86.2,1.74.91,2.25h0Zm-3.92-17.94l8.95-1.29c.37-.05.7-.29.87-.62l4.02-8.05,4.01,8.05c.17.34.49.57.87.63l8.96,1.29-6.47,6.23c-.28.27-.4.65-.34,1.03l1.53,8.82-8.03-4.17c-.33-.17-.73-.17-1.06,0l-8.03,4.17,1.53-8.82c.07-.38-.06-.76-.34-1.03l-6.47-6.24Z"></path>
        <path id="Shape-3" class="cls-1" d="m43.05,88.6l-1.13,6.51c-.11.61.06,1.23.45,1.7.4.47.98.75,1.6.75.34,0,.67-.08.97-.24l5.95-3.1,5.94,3.1c.37.19.8.17,1.15-.05s.55-.61.53-1.02-.25-.78-.62-.97l-6.48-3.38c-.33-.17-.73-.17-1.06,0l-6.08,3.17,1.15-6.68c.07-.38-.06-.76-.34-1.03l-4.89-4.73,6.77-.97c.37-.05.7-.29.87-.63l3.05-6.1,3.04,6.1c.17.34.49.57.87.63l7.24,1.04c.63.09,1.21-.35,1.3-.98s-.35-1.21-.98-1.3l-6.64-.95-2.97-5.96c-.35-.71-1.08-1.16-1.87-1.15h0c-.78,0-1.5.44-1.84,1.15l-2.98,5.97-6.62.95c-.79.11-1.45.66-1.7,1.42-.25.76-.03,1.59.55,2.14l4.77,4.61Z"></path>
        <path id="Shape-4" class="cls-1" d="m106.68,81.84c-.24-.76-.9-1.31-1.68-1.41l-6.63-.95-2.98-5.97c-.34-.7-1.06-1.15-1.84-1.15h0c-.79,0-1.52.44-1.87,1.15l-2.97,5.96-6.64.95c-.41.06-.75.33-.91.71s-.09.82.16,1.14.66.49,1.07.43l7.24-1.04c.38-.05.7-.29.87-.63l3.03-6.09,3.05,6.1c.17.34.49.57.87.63l6.77.97-4.89,4.73c-.28.27-.4.65-.34,1.03l1.16,6.68-6.08-3.17c-.33-.17-.73-.17-1.06,0l-6.48,3.38c-.37.19-.6.56-.62.97s.19.8.53,1.02.79.24,1.15.05l5.95-3.1,5.95,3.1c.7.37,1.55.3,2.19-.17s.96-1.26.82-2.04l-1.12-6.52,4.78-4.61c.58-.55.79-1.39.53-2.15h0Z"></path>
        <path id="Shape-5" class="cls-1" d="m65.87,91.96c.06,0,.11,0,.17-.01l4.33-.62c.37-.05.7-.29.87-.62l2.01-4.01c.29-.57.06-1.26-.51-1.55s-1.26-.06-1.55.51l-1.73,3.47-3.74.54c-.6.09-1.03.62-.99,1.22s.55,1.07,1.15,1.07h0Z"></path>
      </g>
    </g>
  </g>
</svg>
