<svg xmlns="http://www.w3.org/2000/svg" viewBox="0 0 117.81 97.86"><defs><style>.cls-1,.cls-2{fill:#13364b;}.cls-1{opacity:0.5;}</style></defs><g id="Layer_2" data-name="Layer 2"><g id="Layer_1-2" data-name="Layer 1"><path class="cls-1" d="M47.62,49.92l-6.13,3.53c-1.12.65-2.26,1.29-3.37,2-.36.21-.57.22-.86-.13A59.74,59.74,0,0,1,27,37.58c-.17-.46-.08-.67.34-.91,2.9-1.65,5.78-3.32,8.67-5l.68-.4a1.07,1.07,0,0,0-.52-.42c-2.94-1.7-5.89-3.41-8.84-5.09-.42-.24-.51-.45-.34-.91A60.32,60.32,0,0,1,37.22,7.21c.32-.38.55-.38,1-.15,2.9,1.7,5.81,3.37,8.72,5.05l.7.39c0-.28,0-.5,0-.72,0-3.39,0-6.77,0-10.15,0-.46.07-.67.6-.76A59.44,59.44,0,0,1,63.63.23c1.68.14,3.35.38,5,.65.51.09.56.29.56.72q0,5,0,10.09v.73c.29,0,.46-.15.65-.26,3-1.7,5.9-3.39,8.83-5.11.39-.23.61-.22.91.15A59.74,59.74,0,0,1,89.81,24.9c.16.45.06.63-.33.86-3,1.68-5.9,3.39-8.84,5.09-.18.11-.4.16-.55.43l2.47,1.42c2.3,1.34,4.61,2.68,6.93,4,.4.23.47.43.31.87A59.82,59.82,0,0,1,79.63,55.21a.61.61,0,0,1-1,.18c-2.93-1.72-5.88-3.41-8.83-5.11A1,1,0,0,0,69.2,50v.69c0,3.39,0,6.77,0,10.15,0,.48-.17.63-.6.7a59.6,59.6,0,0,1-20.38,0c-.48-.08-.64-.23-.63-.73,0-3.36,0-6.73,0-10.09ZM44.1,31.21c.31.19.5.32.71.43,1.95,1.13,3.89,2.27,5.86,3.37a1,1,0,0,1,.59,1c0,1.95,0,3.9,0,5.85v1.76l.63-.36c2-1.16,4-2.3,6-3.48a.84.84,0,0,1,1,0c2,1.18,4,2.33,6,3.48.2.12.37.31.66.27,0-2.52,0-5,0-7.55a.89.89,0,0,1,.54-.91c2-1.12,3.94-2.27,5.91-3.41.21-.13.48-.19.63-.47l-.55-.34c-2-1.16-4-2.33-6-3.47a.86.86,0,0,1-.5-.87c0-2.14,0-4.29,0-6.44V18.83l-.65.35c-2,1.17-4.06,2.33-6.08,3.52a.74.74,0,0,1-.87,0c-2.08-1.22-4.16-2.41-6.25-3.61-.14-.08-.26-.24-.48-.14,0,2.49,0,5,0,7.47a1,1,0,0,1-.59,1C48.5,28.66,46.35,29.91,44.1,31.21ZM69.2,41.57c0,1.23,0,2.47,0,3.7a.65.65,0,0,0,.36.68q4.2,2.4,8.38,4.83c.31.18.48.16.69-.13A57.92,57.92,0,0,0,85.36,39c.14-.31.08-.44-.21-.61-2.81-1.61-5.63-3.23-8.43-4.87a.62.62,0,0,0-.71,0c-2.13,1.25-4.26,2.48-6.41,3.7a.69.69,0,0,0-.4.72C69.22,39.14,69.2,40.35,69.2,41.57Zm-18,11.49c0,1.61,0,3.21,0,4.82,0,.42.12.54.54.58a58.53,58.53,0,0,0,13.23,0c.44-.05.58-.17.58-.62q0-4.77,0-9.56a.69.69,0,0,0-.41-.71q-3.16-1.8-6.3-3.64a.77.77,0,0,0-.89,0q-3.13,1.84-6.3,3.63a.81.81,0,0,0-.44.83C51.26,49.94,51.25,51.5,51.25,53.06Zm18-32.22c0,1.23,0,2.47,0,3.7a.67.67,0,0,0,.37.68q3.21,1.83,6.41,3.7a.69.69,0,0,0,.78,0q4.17-2.43,8.38-4.84c.31-.17.36-.33.21-.66a59.41,59.41,0,0,0-6.71-11.61c-.23-.32-.39-.33-.72-.14q-4.12,2.41-8.27,4.77a.81.81,0,0,0-.46.82C69.22,18.45,69.2,19.65,69.2,20.84ZM47.62,41.64c0-1.21,0-2.42,0-3.64a.81.81,0,0,0-.45-.82C45.07,36,43,34.77,40.88,33.55a.71.71,0,0,0-.82,0Q35.92,36,31.74,38.34c-.31.18-.42.32-.26.69a59.36,59.36,0,0,0,6.67,11.56c.24.33.42.38.78.17,2.75-1.6,5.5-3.2,8.27-4.77a.77.77,0,0,0,.43-.77C47.61,44,47.62,42.84,47.62,41.64Zm0-20.79c0-1.22,0-2.43,0-3.64a.7.7,0,0,0-.38-.73q-4.18-2.38-8.32-4.8c-.33-.19-.49-.2-.73.13a59.12,59.12,0,0,0-6.71,11.61c-.13.31-.12.48.2.66q4.2,2.4,8.38,4.83a.68.68,0,0,0,.78,0q3.19-1.86,6.41-3.7a.67.67,0,0,0,.38-.67C47.61,23.32,47.62,22.08,47.62,20.85ZM51.25,9.31c0,1.61,0,3.21,0,4.82a.71.71,0,0,0,.38.73c2.15,1.21,4.29,2.45,6.42,3.7a.66.66,0,0,0,.76,0c2.13-1.24,4.27-2.48,6.41-3.7a.61.61,0,0,0,.37-.61q0-4.87,0-9.76c0-.33-.1-.45-.43-.47-.5,0-1-.11-1.49-.15A58.12,58.12,0,0,0,51.72,4c-.41,0-.49.2-.48.56C51.26,6.15,51.25,7.73,51.25,9.31Z"/><path class="cls-2" d="M83.28,78.57v-6c0-.27-.08-.57.39-.56,2.78,0,5.56-.12,8.33.08a4.29,4.29,0,0,1,4.16,4.4c0,2.74,0,5.47,0,8.2,0,.39-.13.47-.48.46-1,0-2,0-3,0-.44,0-.54-.13-.54-.55,0-2.47,0-4.94,0-7.42,0-1.48-.41-1.89-1.88-1.91-.83,0-1.65,0-2.48,0-.44,0-.53.13-.52.55,0,2.9,0,5.81,0,8.72,0,.52-.15.64-.65.62-1,0-1.91,0-2.86,0-.43,0-.54-.12-.54-.54C83.29,82.61,83.28,80.59,83.28,78.57Z"/><path class="cls-2" d="M107.22,76.71,103.52,72c1.3,0,2.5,0,3.7,0a1.49,1.49,0,0,1,1.48.75c.93,1.36,1.94,2.66,2.92,4,.18.24.32.53.71.41a.84.84,0,0,0,.65-.72,5.78,5.78,0,0,0,0-.71c0-1.09,0-2.17,0-3.26,0-.32.06-.46.43-.45,1,0,1.9,0,2.86,0,.37,0,.42.15.42.46,0,1.11,0,2.21,0,3.32a3.57,3.57,0,0,1-2.52,3.55c-.16.06-.35,0-.49.24,1.33,1.82,2.67,3.64,4.09,5.56H113.5c-.27,0-.35-.21-.47-.38l-3.76-5.3c-.37-.51-.52-.51-.87,0a2.43,2.43,0,0,0-.38,1.42c0,1.23,0,2.47,0,3.7,0,.39,0,.58-.52.56-1,0-1.9,0-2.86,0-.33,0-.44-.09-.43-.43,0-1.46-.06-2.91,0-4.36C104.35,78.52,105.53,77.44,107.22,76.71Z"/><path class="cls-2" d="M40.88,85.16H28.59c-.33,0-.39-.12-.38-.42,0-.8,0-1.6,0-2.4,0-.4.14-.46.49-.46,1.71,0,3.43,0,5.14,0h.76L27.86,72h4.41c.31,0,.38.25.5.44.91,1.42,1.81,2.85,2.73,4.26.12.18.16.51.49.43a.87.87,0,0,0,.6-.55,1.9,1.9,0,0,0,.08-.71c0-1.1,0-2.21,0-3.32,0-.39.06-.58.52-.56.91,0,1.82,0,2.73,0,.32,0,.47.06.47.42,0,1.24,0,2.48,0,3.71a3.4,3.4,0,0,1-2.59,3.21c-.48.13-.42.24-.21.57,1,1.52,2,3.06,2.94,4.59Z"/><path class="cls-2" d="M27.05,72l-1.69,4.35c-1.07,2.76-2.14,5.52-3.19,8.29a.65.65,0,0,1-.75.5c-1,0-1.91,0-2.86,0-.59,0-.56-.16-.38-.61,1.14-2.85,2.25-5.71,3.38-8.56.28-.72.27-.72-.51-.72-2.06,0-4.12,0-6.18,0-.46,0-.58-.13-.57-.58,0-1.43,0-2.86,0-4.29,0-.36.1-.49.48-.49q1.56,0,3.12,0c.34,0,.48.11.43.45a.57.57,0,0,0,0,.13c0,.49-.22,1.16.11,1.42s1,.09,1.45.09c2.15,0,4.29,0,6.44,0Z"/><path class="cls-2" d="M68,72c1.95,0,3.9,0,5.85,0,.45,0,.62.1.59.57,0,.74,0,1.48,0,2.21,0,.43-.14.51-.52.5s-1.15-.23-1.41.11-.09,1-.09,1.45c0,2.58,0,5.16,0,7.74,0,.45-.11.59-.57.57q-1.53,0-3.06,0c-.42,0-.54-.1-.54-.53,0-2.91,0-5.81,0-8.72,0-.51-.13-.65-.64-.64-1.91,0-3.82,0-5.73,0-.42,0-.56-.11-.54-.54a17.14,17.14,0,0,0,0-2.15c0-.53.19-.59.64-.59C64.05,72.05,66.05,72,68,72Z"/><path class="cls-2" d="M54.74,78.62c0,2,0,4,0,6,0,.46-.12.59-.58.57-1,0-1.91,0-2.86,0-.47,0-.62-.08-.61-.59,0-2.88,0-5.77,0-8.65,0-.49-.09-.66-.62-.65-2.34,0-4.69,0-7,0-.4,0-.57-.08-.55-.53,0-.76,0-1.52,0-2.28,0-.31.05-.46.42-.46q5.68,0,11.38,0c.45,0,.41.25.41.54C54.74,74.59,54.74,76.6,54.74,78.62Z"/><path class="cls-2" d="M12.2,78.59c0,2,0,4,0,6,0,.43-.12.55-.53.53-1,0-2,0-2.93,0-.46,0-.58-.12-.57-.57,0-2.89,0-5.77,0-8.66,0-.55-.16-.67-.68-.66-2.3,0-4.6,0-6.9,0-.49,0-.65-.11-.62-.61.05-.73,0-1.47,0-2.21C0,72.15.1,72,.45,72q5.67,0,11.32,0c.43,0,.44.2.44.52Q12.19,75.55,12.2,78.59Z"/><path class="cls-2" d="M76.58,78.56c0-2,0-4,0-6,0-.41.1-.56.54-.55,1,0,2,0,3,0,.37,0,.48.1.48.47q0,6.12,0,12.23c0,.34-.09.45-.44.44-1,0-2.08,0-3.12,0-.4,0-.45-.16-.45-.5C76.58,82.63,76.58,80.6,76.58,78.56Z"/><path class="cls-1" d="M11.9,94.71c0,.85,0,1.69,0,2.54,0,.37-.07.55-.5.53-.6,0-1.21,0-1.82,0-.32,0-.47-.07-.47-.43,0-2.28,0-4.55,0-6.83,0-.35.14-.47.47-.43h.06c.8,0,1.74-.23,2.36.11s.6,1.37.92,2.08a1.42,1.42,0,0,0,.34.55c0-.73,0-1.45,0-2.18,0-.47.15-.6.59-.57a12.66,12.66,0,0,0,1.63,0c.37,0,.54.06.53.49,0,2.26,0,4.51,0,6.77,0,.35-.12.48-.45.43h-.13c-.73,0-1.62.22-2.16-.11s-.58-1.29-.84-2l-.39-1Z"/><path class="cls-1" d="M38.79,93.91c0-1.1,0-2.21,0-3.31,0-.4.11-.52.51-.52,1.52,0,3,0,4.55,0,1.31,0,1.78.52,1.79,1.84v3.9c0,1.46-.46,1.91-1.9,1.93s-2.94,0-4.41,0c-.45,0-.55-.15-.54-.56C38.8,96.12,38.79,95,38.79,93.91Zm3,0v1.69c0,.21,0,.46.3.44s.45-.13.45-.44v-3.3c0-.3-.18-.41-.46-.4s-.28.26-.28.46C41.79,92.86,41.79,93.38,41.79,93.89Z"/><path class="cls-1" d="M0,93.33c0-.93,0-1.87,0-2.8,0-.34.11-.46.45-.45.7,0,1.39,0,2.08,0,.41,0,.52.13.52.52,0,1.5,0,3,0,4.49,0,.15,0,.3,0,.46s0,.51.36.51.36-.27.36-.51c0-1.22,0-2.43,0-3.65,0-.58-.25-1.32.11-1.69S5,90.1,5.58,90.1c1.22,0,1.22,0,1.22,1.21,0,1.52,0,3,0,4.55s-.45,2-2,2c-1,0-2,0-3.06,0C.51,97.8.09,97.36,0,96.13v-2.8Z"/><path class="cls-1" d="M51.75,93.92c0-1.11,0-2.22,0-3.32,0-.39.11-.54.51-.52.67,0,1.35,0,2,0,.36,0,.51.09.49.48,0,.56,0,1.12,0,1.69,0,.26,0,.45.36.45s.41-.13.4-.43c0-.56,0-1.13,0-1.69,0-.35.08-.51.47-.5.7,0,1.39,0,2.08,0,.4,0,.47.16.47.5q0,3.36,0,6.7c0,.36-.08.51-.47.5-.69,0-1.39,0-2.08,0-.38,0-.48-.14-.47-.49,0-.78,0-1.56,0-2.35,0-.3,0-.48-.41-.48s-.35.23-.35.47c0,.79,0,1.57,0,2.35,0,.41-.14.51-.52.5-.68,0-1.35,0-2,0-.37,0-.48-.11-.48-.48C51.76,96.17,51.75,95.05,51.75,93.92Z"/><path class="cls-1" d="M116.73,93.94c0,1.1,0,2.21,0,3.31,0,.38-.07.55-.5.53-.69,0-1.38,0-2.08,0-.34,0-.45-.11-.44-.45,0-.8,0-1.6,0-2.4,0-.26,0-.47-.35-.47s-.42.18-.42.48c0,.78,0,1.56,0,2.34,0,.35-.06.52-.46.5-.71,0-1.43,0-2.14,0-.32,0-.41-.11-.41-.42,0-2.28,0-4.55,0-6.83,0-.34.1-.46.45-.45.69,0,1.38,0,2.08,0,.36,0,.5.1.48.48s0,1,0,1.49c0,.26-.17.63.37.65s.38-.35.39-.61c0-.52,0-1,0-1.57,0-.34.12-.45.45-.44.67,0,1.35,0,2,0,.42,0,.56.11.55.54C116.71,91.73,116.73,92.83,116.73,93.94Z"/><path class="cls-1" d="M88.2,90.09h1.89c.31,0,.45.06.51.4q.59,3.47,1.22,6.91c.06.3,0,.38-.32.37-.78,0-1.56,0-2.34,0-.31,0-.43-.1-.44-.41s-.08-.56-.09-.84-.12-.45-.46-.44-.44.14-.48.46c-.13,1.22-.14,1.22-1.37,1.22h-.26c-1.61,0-1.6,0-1.32-1.56.34-1.85.68-3.7,1-5.56.07-.44.22-.59.66-.57C87,90.12,87.59,90.09,88.2,90.09Zm-.07,2.16c-.08.7-.15,1.27-.23,1.84,0,.22,0,.32.26.32s.35,0,.3-.28A10.21,10.21,0,0,0,88.13,92.25Z"/><path class="cls-1" d="M104.25,90.09h1.89c.33,0,.5.06.56.43q.57,3.38,1.18,6.72c.09.45,0,.56-.46.54a19.25,19.25,0,0,0-2,0c-.47,0-.62-.16-.63-.58,0-.24,0-.47,0-.71s-.18-.39-.47-.4-.43,0-.47.37.09,1-.23,1.22a2.64,2.64,0,0,1-1.33.09c-.53,0-1.25.23-1.56-.11s.09-1,.17-1.48c.3-1.81.65-3.62.93-5.44.09-.55.31-.71.84-.66S103.71,90.09,104.25,90.09Zm.06,2.12h-.07c-.09.62-.17,1.24-.26,1.85,0,.19,0,.34.24.34s.35-.06.31-.34C104.44,93.45,104.39,92.83,104.31,92.21Z"/><path class="cls-1" d="M66.32,97.77h-.19c-1.3,0-1.31,0-1.47-1.26,0-.3-.13-.42-.43-.42s-.46.06-.5.42c-.16,1.26-.17,1.28-1.47,1.25-.57,0-1.36.27-1.66-.13s.11-1.06.2-1.61c.32-1.81.66-3.61,1-5.43.06-.36.16-.52.56-.51,1.25,0,2.51,0,3.77,0,.34,0,.48.09.54.45.37,2.27.77,4.52,1.19,6.77.07.41,0,.5-.39.48S66.69,97.77,66.32,97.77Zm-2.09-5.59h-.06c-.08.63-.16,1.26-.26,1.89,0,.25,0,.35.3.35s.29-.17.26-.39C64.38,93.42,64.31,92.8,64.23,92.18Z"/><path class="cls-1" d="M31.62,93.93c0-1.11,0-2.21,0-3.32,0-.37.08-.54.5-.53,1.3,0,2.6,0,3.9,0,.36,0,.48.1.49.48,0,1.29,0,1.29-1.27,1.31-.3,0-.6-.06-.59.44s.31.36.57.37h.07c1.24,0,1.23,0,1.22,1.23,0,.42-.12.61-.55.56-.17,0-.35,0-.52,0-.61-.1-.85.11-.8.76s0,.79.91.81c.3,0,.79-.18.88.13a4.07,4.07,0,0,1,0,1.48c0,.18-.24.13-.39.13-1.34,0-2.68,0-4,0-.38,0-.43-.17-.42-.47C31.63,96.18,31.62,95.05,31.62,93.93Z"/><path class="cls-1" d="M79.82,97.77c-.76,0-1.52,0-2.28,0-.31,0-.4-.11-.41-.41a4.05,4.05,0,0,1,.41-2.13c.51-.93.92-1.91,1.4-2.86.17-.36.2-.57-.3-.51h-.13c-1.26,0-1.24,0-1.22-1.3,0-.36.1-.49.48-.49,1.43,0,2.86,0,4.29,0,.32,0,.47.06.47.42a4.12,4.12,0,0,1-.39,2.07c-.53,1-1,2-1.45,3-.16.34-.18.53.28.48a5.61,5.61,0,0,1,.58,0c1,0,.94,0,1,.95,0,.61-.11.86-.77.8A18.1,18.1,0,0,0,79.82,97.77Z"/><path class="cls-2" d="M98,75.63c0-1,0-2.08,0-3.12,0-.35.08-.5.46-.49,1,0,2,0,3,0,.35,0,.51,0,.51.45q0,3.22,0,6.43c0,.32-.1.42-.41.41-1.06,0-2.13,0-3.19,0-.35,0-.43-.12-.42-.44C98,77.79,98,76.71,98,75.63Z"/><path class="cls-1" d="M72.06,90.09h2.6c.3,0,.46.07.43.39a2.35,2.35,0,0,0,0,.26c0,1.08,0,1.11-1,1.12-.44,0-.48.21-.47.56,0,1.61,0,3.21,0,4.81,0,.42-.1.58-.54.55a15.86,15.86,0,0,0-2,0c-.46,0-.54-.17-.53-.56,0-1.59,0-3.17,0-4.75,0-.5-.15-.63-.63-.61-.29,0-.76.21-.86-.16a4.33,4.33,0,0,1,0-1.48c0-.21.29-.12.45-.13Z"/><path class="cls-2" d="M0,81.67c0-1,0-2.07,0-3.11,0-.37.11-.48.47-.48q1.56,0,3.12,0c.36,0,.43.12.42.45Q4,81.6,4,84.7c0,.36-.09.48-.47.47q-1.56,0-3.12,0c-.34,0-.44-.11-.43-.44C0,83.71,0,82.69,0,81.67Z"/><path class="cls-1" d="M26.54,90.09c.84,0,1.69,0,2.54,0,.33,0,.49.09.45.44a1.74,1.74,0,0,0,0,.32c0,1,0,1-1,1-.46,0-.53.18-.53.57,0,1.59,0,3.17,0,4.75,0,.43-.08.64-.56.6a12.28,12.28,0,0,0-1.82,0c-.56,0-.64-.19-.63-.66,0-1.54,0-3.08,0-4.62,0-.46-.08-.68-.6-.64-.29,0-.78.2-.88-.14a4.31,4.31,0,0,1,0-1.48c0-.23.29-.15.45-.15Z"/><path class="cls-2" d="M42.54,81.55c0-1,0-2,0-3,0-.37.1-.48.47-.48,1,0,2.08,0,3.12,0,.33,0,.45.07.45.42,0,2.08,0,4.16,0,6.24,0,.3-.07.42-.4.42-1.06,0-2.12,0-3.18,0-.4,0-.46-.16-.45-.5C42.55,83.63,42.54,82.59,42.54,81.55Z"/><path class="cls-1" d="M93.91,93.91c0-1.11,0-2.22,0-3.32,0-.41.13-.52.52-.51a18.12,18.12,0,0,0,1.95,0c.43,0,.55.13.55.55,0,1.6,0,3.21,0,4.81,0,.51.16.61.63.61,1.35,0,1.38,0,1.23,1.4,0,.25-.12.32-.36.32-1.36,0-2.73,0-4.09,0-.4,0-.4-.21-.4-.49C93.92,96.16,93.91,95,93.91,93.91Z"/><path class="cls-1" d="M18.36,93.92c0-1.1,0-2.21,0-3.31,0-.39.1-.55.51-.53.69,0,1.39,0,2.08,0,.34,0,.46.1.46.44q0,3.42,0,6.83c0,.3-.09.44-.41.43-.74,0-1.47,0-2.21,0-.37,0-.43-.16-.42-.47C18.37,96.18,18.36,95.05,18.36,93.92Z"/></g></g></svg>